ffmpeg started on 2016-12-05 at 09:31:23
Report written to "Output/x264/results/ffmpeg/Tcrowd_run_2160p50veryfast15000k.log"
Command line:
Tools/ffmpeg/ffmpeg -i Output/x264/encoded/crowd_run_2160p50veryfast15000k.mkv -c:v rawvideo -pix_fmt yuv420p Output/x264/transcoded/crowd_run_2160p50veryfast15000k.yuv
ffmpeg version N-82227-gdb23fde Copyright (c) 2000-2016 the FFmpeg developers
  built with gcc 5.4.0 (Ubuntu 5.4.0-6ubuntu1~16.04.2) 20160609
  configuration: --prefix=/home/jaroslav/ffmpeg_build --pkg-config-flags=--static --extra-cflags=-I/home/jaroslav/ffmpeg_build/include --extra-ldflags=-L/home/jaroslav/ffmpeg_build/lib --bindir=/home/jaroslav/bin --enable-gpl --enable-libass --enable-libfdk-aac --enable-libfreetype --enable-libmp3lame --enable-libopus --enable-libtheora --enable-libvorbis --enable-libvpx --enable-libx264 --enable-libx265 --enable-nvenc --enable-libmfx --enable-libxvid --enable-libgsm --enable-libopencore-amrnb --enable-version3 --enable-nonfree
  libavutil      55. 35.100 / 55. 35.100
  libavcodec     57. 66.101 / 57. 66.101
  libavformat    57. 57.100 / 57. 57.100
  libavdevice    57.  2.100 / 57.  2.100
  libavfilter     6. 66.100 /  6. 66.100
  libswscale      4.  3.100 /  4.  3.100
  libswresample   2.  4.100 /  2.  4.100
  libpostproc    54.  2.100 / 54.  2.100
Input #0, matroska,webm, from 'Output/x264/encoded/crowd_run_2160p50veryfast15000k.mkv':
  Metadata:
    ENCODER         : Lavf57.57.100
  Duration: 00:00:10.00, start: 0.000000, bitrate: 14984 kb/s
    Stream #0:0: Video: h264 (High), yuv420p(progressive), 3840x2160 [SAR 1:1 DAR 16:9], 50 fps, 50 tbr, 1k tbn, 100 tbc (default)
    Metadata:
      ENCODER         : Lavc57.66.101 libx264
      DURATION        : 00:00:10.000000000
Output #0, rawvideo, to 'Output/x264/transcoded/crowd_run_2160p50veryfast15000k.yuv':
  Metadata:
    encoder         : Lavf57.57.100
    Stream #0:0: Video: rawvideo (I420 / 0x30323449), yuv420p, 3840x2160 [SAR 1:1 DAR 16:9], q=2-31, 200 kb/s, 50 fps, 50 tbn, 50 tbc (default)
    Metadata:
      DURATION        : 00:00:10.000000000
      encoder         : Lavc57.66.101 rawvideo
Stream mapping:
  Stream #0:0 -> #0:0 (h264 (native) -> rawvideo (native))
Press [q] to stop, [?] for help
frame=   13 fps=0.0 q=-0.0 size=  157950kB time=00:00:00.26 bitrate=4976640.0kbits/s speed=0.516x    frame=   30 fps= 30 q=-0.0 size=  364500kB time=00:00:00.60 bitrate=4976640.0kbits/s speed=0.591x    frame=   47 fps= 31 q=-0.0 size=  571050kB time=00:00:00.94 bitrate=4976640.0kbits/s speed=0.614x    frame=   64 fps= 31 q=-0.0 size=  777600kB time=00:00:01.28 bitrate=4976640.0kbits/s speed=0.626x    frame=   81 fps= 32 q=-0.0 size=  984150kB time=00:00:01.62 bitrate=4976640.0kbits/s speed=0.633x    frame=   98 fps= 32 q=-0.0 size= 1190700kB time=00:00:01.96 bitrate=4976640.0kbits/s speed=0.638x    frame=  115 fps= 32 q=-0.0 size= 1397250kB time=00:00:02.30 bitrate=4976640.0kbits/s speed=0.642x    frame=  132 fps= 32 q=-0.0 size= 1603800kB time=00:00:02.64 bitrate=4976640.0kbits/s speed=0.644x    frame=  149 fps= 32 q=-0.0 size= 1810350kB time=00:00:02.98 bitrate=4976640.0kbits/s speed=0.645x    frame=  166 fps= 32 q=-0.0 size= 2016900kB time=00:00:03.32 bitrate=4976640.0kbits/s speed=0.647x    frame=  183 fps= 32 q=-0.0 size= 2223450kB time=00:00:03.66 bitrate=4976640.0kbits/s speed=0.648x    frame=  200 fps= 32 q=-0.0 size= 2430000kB time=00:00:04.00 bitrate=4976640.0kbits/s speed=0.648x    frame=  215 fps= 32 q=-0.0 size= 2612250kB time=00:00:04.30 bitrate=4976640.0kbits/s speed=0.644x    frame=  232 fps= 32 q=-0.0 size= 2818800kB time=00:00:04.64 bitrate=4976640.0kbits/s speed=0.645x    frame=  249 fps= 32 q=-0.0 size= 3025350kB time=00:00:04.98 bitrate=4976640.0kbits/s speed=0.646x    frame=  266 fps= 32 q=-0.0 size= 3231900kB time=00:00:05.32 bitrate=4976640.0kbits/s speed=0.647x    frame=  280 fps= 32 q=-0.0 size= 3402000kB time=00:00:05.60 bitrate=4976640.0kbits/s speed=0.642x    frame=  294 fps= 32 q=-0.0 size= 3572100kB time=00:00:05.88 bitrate=4976640.0kbits/s speed=0.636x    frame=  309 fps= 32 q=-0.0 size= 3754350kB time=00:00:06.18 bitrate=4976640.0kbits/s speed=0.634x    frame=  322 fps= 31 q=-0.0 size= 3912300kB time=00:00:06.44 bitrate=4976640.0kbits/s speed=0.625x    frame=  333 fps= 31 q=-0.0 size= 4045950kB time=00:00:06.66 bitrate=4976640.0kbits/s speed=0.613x    frame=  348 fps= 31 q=-0.0 size= 4228200kB time=00:00:06.96 bitrate=4976640.0kbits/s speed=0.611x    frame=  358 fps= 30 q=-0.0 size= 4349700kB time=00:00:07.16 bitrate=4976640.0kbits/s speed=0.59x    frame=  366 fps= 29 q=-0.0 size= 4446900kB time=00:00:07.32 bitrate=4976640.0kbits/s speed=0.577x    frame=  381 fps= 29 q=-0.0 size= 4629150kB time=00:00:07.62 bitrate=4976640.0kbits/s speed=0.577x    frame=  393 fps= 29 q=-0.0 size= 4774950kB time=00:00:07.86 bitrate=4976640.0kbits/s speed=0.573x    frame=  406 fps= 28 q=-0.0 size= 4932900kB time=00:00:08.12 bitrate=4976640.0kbits/s speed=0.57x    frame=  420 fps= 28 q=-0.0 size= 5103000kB time=00:00:08.40 bitrate=4976640.0kbits/s speed=0.569x    frame=  433 fps= 28 q=-0.0 size= 5260950kB time=00:00:08.66 bitrate=4976640.0kbits/s speed=0.565x    frame=  447 fps= 28 q=-0.0 size= 5431050kB time=00:00:08.94 bitrate=4976640.0kbits/s speed=0.564x    frame=  458 fps= 28 q=-0.0 size= 5564700kB time=00:00:09.16 bitrate=4976640.0kbits/s speed=0.559x    frame=  472 fps= 28 q=-0.0 size= 5734800kB time=00:00:09.44 bitrate=4976640.0kbits/s speed=0.559x    frame=  478 fps= 27 q=-0.0 size= 5807700kB time=00:00:09.56 bitrate=4976640.0kbits/s speed=0.548x    frame=  495 fps= 28 q=-0.0 size= 6014250kB time=00:00:09.90 bitrate=4976640.0kbits/s speed=0.551x    frame=  500 fps= 28 q=-0.0 Lsize= 6075000kB time=00:00:10.00 bitrate=4976640.0kbits/s speed=0.551x    
video:6075000kB audio:0kB subtitle:0kB other streams:0kB global headers:0kB muxing overhead: 0.000000%
